HIERARCHY
ROOT Hips
{
  OFFSET -27.3851 98.1195 107.712
  CHANNELS 6 Xposition Yposition Zposition Zrotation Xrotation Yrotation
  JOINT RightUpLeg
  {
    OFFSET -8.9458 -8.66707 0.101652
    CHANNELS 3 Zrotation Xrotation Yrotation
    JOINT RightLeg
    {
      OFFSET 0 -44.4227 1.3727
      CHANNELS 3 Zrotation Xrotation Yrotation
      JOINT RightFoot
      {
        OFFSET 0.253549 -42.0924 -1.46059
        CHANNELS 3 Zrotation Xrotation Yrotation
        JOINT RightToes
        {
          OFFSET 0.04 -4.41509 8.4991
          CHANNELS 3 Zrotation Xrotation Yrotation
          End Site
          {
            OFFSET -0.08 -0.137448 9.77979
          }
        }
      }
    }
  }
  JOINT Spine
  {
    OFFSET 0 11.8905 0
    CHANNELS 3 Zrotation Xrotation Yrotation
    JOINT Spine1
    {
      OFFSET 0 25.6574 0.127663
      CHANNELS 3 Zrotation Xrotation Yrotation
      JOINT HEad
      {
        OFFSET 0 8.73416 0.011341
        CHANNELS 3 Zrotation Xrotation Yrotation
        End Site
        {
          OFFSET -0.29 12.7742 2.51395
        }
      }
      JOINT LeftShoulder1
      {
        OFFSET 8.99 -0.362252 -0.22
        CHANNELS 3 Zrotation Xrotation Yrotation
        JOINT LeftArm
        {
          OFFSET 10.2827 -0.00338 0.322123
          CHANNELS 3 Zrotation Xrotation Yrotation
          JOINT LeftForeArm
          {
            OFFSET 32.7669 0.099144 -1.42434
            CHANNELS 3 Zrotation Xrotation Yrotation
            JOINT LeftHand
            {
              OFFSET 27.5643 0.085362 1.02216
              CHANNELS 3 Zrotation Xrotation Yrotation
              End Site
              {
                OFFSET 16.7443 -0.6 1.50291
              }
            }
          }
        }
      }
      JOINT RightShoulder
      {
        OFFSET -8.99 -0.362252 -0.22
        CHANNELS 3 Zrotation Xrotation Yrotation
        JOINT RightArm
        {
          OFFSET -10.2827 -0.00338 0.322123
          CHANNELS 3 Zrotation Xrotation Yrotation
          JOINT RightForeArm
          {
            OFFSET -32.8971 0.099144 -1.42434
            CHANNELS 3 Zrotation Xrotation Yrotation
            JOINT RightHand
            {
              OFFSET -27.4921 0.085362 1.02216
              CHANNELS 3 Zrotation Xrotation Yrotation
              End Site
              {
                OFFSET -16.6312 -0.6 1.50291
              }
            }
          }
        }
      }
    }
  }
  JOINT LeftUpLeg
  {
    OFFSET 8.9458 -8.66707 0.101652
    CHANNELS 3 Zrotation Xrotation Yrotation
    JOINT LeftLeg
    {
      OFFSET 0 -44.4227 1.3727
      CHANNELS 3 Zrotation Xrotation Yrotation
      JOINT LeftFoot
      {
        OFFSET -0.253549 -42.0924 -1.46059
        CHANNELS 3 Zrotation Xrotation Yrotation
        JOINT LeftToes
        {
          OFFSET -0.04 -4.41509 8.4991
          CHANNELS 3 Zrotation Xrotation Yrotation
          End Site
          {
            OFFSET 0.08 -0.047448 9.77979
          }
        }
      }
    }
  }
}
MOTION
Frames:	17
Frame Time:	0.0166667
-23.5878 98.7652 163.76 0.210529 -0.0302717 -179.387 1.5452 -26.0816 -0.124547 3.33462 29.3562 -9.04338 0.628669 -6.30994 -0.162799 0.0462048 0.000533964 0.662642 0.45586 3.76303 0.551798 4.11798 0.821977 -0.0958497 2.25873 11.4565 -0.797936 2.98177e-016 7.95139e-016 -9.93923e-017 -97.1288 -24.09 -17.2456 -18.9726 14.4441 -12.9323 0.368473 9.90896 -0.00117928 -2.24618 0.109269 -1.81667 77.5068 -47.4029 -13.4143 14.1409 14.5576 19.6187 -0.369625 9.91382 0.00119887 1.82714 5.25872 -0.0624728 -6.43177 33.8907 8.95637 -8.55615 -6.00304 -0.249251 -6.12575e-012 -1.64775e-010 -8.29807e-012 
-23.3831 98.8614 162.111 0.642702 0.00869033 -179.383 1.98675 -25.1842 -1.6202 2.96858 29.9457 -7.64892 0.28646 -7.47885 -0.17557 -0.0379152 -0.260741 0.790692 0.632129 3.87276 0.594176 4.5606 0.540307 -0.0958441 2.15417 11.078 -0.905766 7.45443e-017 0 9.93923e-017 -97.0205 -25.4912 -16.1107 -18.3107 14.3728 -12.9802 0.368473 9.90896 -0.00117928 -2.24216 0.0705535 -2.41344 77.3194 -47.4411 -13.3946 14.1032 14.5265 19.454 -0.369625 9.91382 0.00119887 2.65758 4.40164 0.697372 -6.27605 36.5492 9.86941 -8.35378 -3.1905 -0.0363141 4.60785 2.86504 -2.5108 
-23.1774 98.9327 160.496 1.08535 0.0204454 -179.33 2.4832 -24.3302 -2.81526 2.69487 30.5191 -6.54455 0.00389729 -8.65281 -0.188108 -0.0812918 -0.537392 0.793082 0.882754 3.98667 0.6172 4.96711 0.297861 -0.0958411 2.10768 10.6384 -1.01819 4.22417e-016 0 -9.93923e-017 -96.791 -26.858 -15.0108 -17.675 14.3114 -13.089 0.368473 9.90896 -0.00117928 -2.25665 0.0351236 -2.96049 77.2093 -47.3972 -13.3278 14.1188 14.5143 19.3455 -0.369625 9.91382 0.00119887 3.49597 3.2974 1.44867 -6.04682 39.4494 10.667 -8.18313 -0.134616 0.187997 9.09745 5.55637 -4.92961 
-22.9641 98.9352 158.972 1.55797 -0.0429558 -179.18 3.02216 -23.6305 -3.26037 2.71722 31.0865 -6.20585 -0.125406 -9.84544 -0.201536 -0.009721 -0.869518 0.416931 1.33763 4.11742 0.583836 5.25903 0.157765 -0.0961081 2.25601 10.0876 -1.10236 4.96962e-017 0 -0 -96.2953 -28.1392 -13.9853 -17.114 14.2819 -13.392 0.368473 9.90896 -0.00117928 -2.33662 0.00781362 -3.38441 77.3366 -47.1313 -13.1318 14.2761 14.5536 19.3902 -0.369625 9.91382 0.00119887 4.37452 1.55318 2.26019 -5.43116 43.0468 11.0335 -8.08987 3.59256 0.45182 13.2254 7.95472 -7.3728 
-22.7593 98.9 157.506 2.04544 -0.146472 -178.88 3.55178 -23.0131 -3.23261 2.98555 31.629 -6.46406 -0.141489 -11.036 -0.211053 0.0986747 -1.19844 -0.0819931 1.90595 4.2438 0.527666 5.5273 0.0875437 -0.0981737 2.42367 9.33241 -1.27579 4.34841e-016 0 -0 -95.7523 -29.3306 -13.1285 -16.5876 14.2575 -13.7331 0.368473 9.90896 -0.00117928 -2.4109 -0.0128603 -3.7066 77.521 -46.7342 -12.8716 14.5235 14.624 19.5219 -0.369625 9.91382 0.00119887 5.1975 -0.635109 2.90233 -4.46141 47.0427 11.0712 -8.01589 7.67962 0.731467 16.0247 9.76267 -9.07381 
-22.5803 98.8195 156.094 2.58642 -0.296288 -178.336 4.07616 -22.5 -2.69536 3.6077 32.1721 -7.47042 -0.00119435 -12.2399 -0.207643 0.218378 -1.45815 -0.583762 2.60268 4.36094 0.463866 5.8718 0.0601566 -0.104369 2.43302 8.16342 -1.66714 9.69075e-016 0 3.97569e-016 -95.3731 -30.4313 -12.5943 -16.0452 14.2108 -13.9694 0.368473 9.90896 -0.00117928 -2.41022 -0.0283348 -3.94888 77.6086 -46.2169 -12.6148 14.8732 14.727 19.741 -0.369625 9.91382 0.00119887 5.8261 -3.31672 3.30755 -2.75339 51.4463 10.2789 -7.89794 12.401 1.04137 16.4632 10.5454 -9.33376 
-22.4171 98.7657 154.704 3.04277 -0.416484 -177.634 4.47273 -21.891 -2.11448 4.30468 32.5435 -8.73449 0.141244 -13.3626 -0.204701 0.287621 -1.71062 -0.933527 3.23931 4.43246 0.410693 6.18717 0.12243 -0.114891 2.38561 6.87948 -2.20499 -9.93923e-017 7.95139e-016 3.97569e-016 -95.0781 -31.3855 -12.2686 -15.5669 14.1679 -14.1954 0.368473 9.90896 -0.00117928 -2.37626 -0.0339254 -4.03667 77.683 -45.6796 -12.2696 15.2221 14.8285 19.9453 -0.369625 9.91382 0.00119887 6.23621 -6.15747 3.06595 -1.03715 55.7698 9.93192 -7.76876 16.427 1.30226 14.1277 10.7232 -7.94545 
-22.2669 98.8318 153.302 3.23747 -0.410132 -176.784 4.57608 -20.9442 -2.11312 4.71001 32.5503 -9.71132 0.0984076 -14.2678 -0.216585 0.174242 -2.03995 -0.758426 3.59162 4.40142 0.393643 6.36366 0.374416 -0.132918 2.3623 5.68379 -2.90758 -1.2921e-015 7.95139e-016 7.95139e-016 -94.8563 -32.0349 -12.1324 -15.2114 14.1441 -14.4544 0.368473 9.90896 -0.00117928 -2.28318 -0.0262147 -3.9219 77.7657 -45.2171 -11.7221 15.4731 14.8937 20.0057 -0.369625 9.91382 0.00119887 6.15744 -8.82636 1.40146 -1.06626 59.4717 12.1756 -7.69888 18.508 1.42511 6.95726 10.5697 -3.58758 
-22.1247 98.9464 151.893 3.30729 -0.347004 -175.922 4.5952 -19.8269 -2.15547 5.04417 32.3405 -10.6367 0.00931997 -15.0966 -0.232045 0.0759984 -2.31433 -0.592143 3.78097 4.32475 0.406239 6.51471 0.629393 -0.151846 2.27942 4.6543 -3.63951 -5.96354e-016 -7.95139e-016 -0 -94.6799 -32.6818 -12.0384 -14.991 14.1436 -14.7573 0.368473 9.90896 -0.00117928 -2.26489 -0.00280306 -3.54691 77.8882 -44.851 -11.1025 15.6259 14.9293 20.0029 -0.369625 9.91382 0.00119887 5.7736 -11.3611 -0.739178 -2.33629 62.5141 16.2082 -7.33637 18.6839 1.37748 -0.610088 9.86088 0.992641 
-21.9775 99.0836 150.436 3.36054 -0.279583 -175.262 4.72619 -18.5751 -1.72641 5.47514 31.8897 -11.6566 -0.0315859 -15.9813 -0.242749 0.201709 -2.30211 -0.985621 3.80968 4.23267 0.471616 6.79679 0.624594 -0.164254 2.03509 4.03905 -4.23184 -1.98785e-016 1.59028e-015 -0 -94.4786 -33.7157 -11.7372 -14.9947 14.1849 -15.1373 0.368473 9.90896 -0.00117928 -2.48226 0.051664 -2.65352 77.9712 -44.7176 -10.6553 15.632 14.9296 20.0097 -0.369625 9.91382 0.00119887 5.48642 -13.651 -2.54319 -4.27796 64.7002 21.9761 -6.09649 15.8254 1.025 -3.9282 8.54864 2.90754 
-21.847 99.2001 149.029 3.31498 -0.162824 -174.568 4.74424 -17.3341 -1.42057 5.83097 31.5108 -12.5172 -0.0761711 -16.8111 -0.253998 0.355272 -2.38632 -1.51516 3.81159 4.14825 0.526355 6.97002 0.68821 -0.175749 1.84004 3.52957 -4.80736 4.96962e-016 -1.59028e-015 -7.95139e-016 -94.3069 -34.7216 -11.4953 -15.0484 14.239 -15.5705 0.368473 9.90896 -0.00117928 -2.83189 0.101893 -1.7952 78.405 -44.5769 -9.89786 15.5362 14.8965 19.9207 -0.369625 9.91382 0.00119887 5.0164 -15.8123 -4.31131 -6.53348 65.9897 27.4308 -4.9362 12.1858 0.653261 -5.91721 6.8434 3.94492 
-21.7615 99.2289 147.799 3.08772 0.0622936 -173.555 4.46221 -16.3103 -1.76161 6.04192 31.612 -13.0406 -0.147222 -17.4646 -0.268465 0.357334 -3.02181 -1.88176 3.97059 4.12033 0.492118 6.77101 1.19893 -0.193252 1.92091 2.76026 -5.47184 -9.93923e-016 -1.59028e-015 7.95139e-016 -94.2979 -35.2565 -11.6476 -14.9438 14.2768 -16.0626 0.368473 9.90896 -0.00117928 -3.2488 0.104844 -1.66837 79.7243 -44.1461 -8.21097 15.3444 14.8137 19.5514 -0.369625 9.91382 0.00119887 4.09124 -17.9763 -6.19489 -7.63198 66.7052 29.1604 -4.7163 10.0765 0.527953 -8.25125 4.83942 5.10072 
-21.6879 99.2149 146.609 2.77592 0.299975 -172.583 4.13095 -15.3655 -2.39367 6.07027 31.8908 -13.1964 -0.237926 -18.1059 -0.285729 0.339596 -3.7615 -2.2641 4.13732 4.10181 0.436902 6.42784 1.7425 -0.205457 2.06918 2.15333 -6.10572 9.93923e-017 2.38542e-015 3.18055e-015 -94.2242 -35.7873 -11.7668 -14.8759 14.3181 -16.557 0.368473 9.90896 -0.00117928 -3.76714 0.0986712 -1.58602 81.2954 -43.6179 -6.33197 15.1207 14.7281 19.2128 -0.369625 9.91382 0.00119887 3.01969 -19.9887 -7.83534 -7.96147 66.8221 29.1228 -4.83527 8.20288 0.46817 -9.96609 2.70564 5.86177 
-21.5927 99.1742 145.344 2.46902 0.461375 -171.973 3.95236 -14.4299 -3.23548 5.7363 32.1974 -12.7132 -0.341516 -18.9155 -0.30478 0.407536 -4.25492 -2.79003 4.19694 4.05737 0.409176 6.09374 1.96251 -0.200193 2.16986 2.13323 -6.62403 -3.97569e-016 1.59028e-015 -1.59028e-015 -93.8074 -36.6955 -11.4677 -15.0191 14.3744 -16.9581 0.368473 9.90896 -0.00117928 -4.4381 0.113983 -0.968623 82.6689 -43.1548 -4.86631 14.9445 14.692 19.2064 -0.369625 9.91382 0.00119887 2.11654 -21.749 -8.79254 -7.98203 66.2234 28.5592 -5.00101 5.85771 0.379058 -10.4039 0.592892 5.86013 
-21.5055 99.1264 144.072 2.14421 0.588914 -171.556 3.82067 -13.5024 -4.00918 5.32904 32.4755 -12.0997 -0.481391 -19.7237 -0.330434 0.484546 -4.66704 -3.31059 4.23015 4.00063 0.389164 5.72763 2.06406 -0.186811 2.23728 2.32116 -7.02726 -4.41391e-032 1.59028e-015 1.59028e-015 -93.2453 -37.8031 -10.9205 -15.227 14.4443 -17.3881 0.368473 9.90896 -0.00117928 -5.14986 0.130455 -0.190191 84.0001 -42.6913 -3.47489 14.7847 14.6815 19.3738 -0.369625 9.91382 0.00119887 1.34616 -23.3082 -9.35974 -7.92039 64.909 27.9561 -5.24163 3.58784 0.296044 -10.5202 -1.37868 5.65174 
-21.4464 99.1103 142.83 1.79645 0.695726 -171.284 3.66124 -12.5505 -4.32769 5.13882 32.5744 -11.9053 -0.728816 -20.3467 -0.375455 0.492205 -5.1695 -3.66422 4.27807 3.92976 0.373755 5.33958 2.13929 -0.17094 2.20589 2.48729 -7.28119 -1.78906e-015 -1.59028e-015 3.18055e-015 -92.6784 -39.1269 -10.1555 -15.3879 14.5348 -18.0038 0.368473 9.90896 -0.00117928 -5.80854 0.136373 0.57156 85.2978 -42.2096 -2.00642 14.6243 14.6838 19.6253 -0.369625 9.91382 0.00119887 0.729229 -24.667 -9.7262 -8.17283 62.7773 28.5435 -5.5047 1.80752 0.225911 -11.0546 -3.02382 5.71986 
-21.41 99.0846 141.596 1.45274 0.779919 -171.125 3.49645 -11.6091 -4.45876 5.03129 32.6393 -11.7642 -0.933643 -21.0068 -0.414962 0.550033 -5.39355 -4.01592 4.34463 3.85584 0.361418 4.93014 2.17065 -0.151637 2.15241 2.61402 -7.40453 -1.19271e-015 7.95139e-016 -1.59028e-015 -91.9843 -40.4555 -9.19166 -15.569 14.6277 -18.6056 0.368473 9.90896 -0.00117928 -6.40905 0.136517 1.30728 86.5097 -41.6961 -0.530046 14.4965 14.7151 20.0564 -0.369625 9.91382 0.00119887 0.268573 -25.838 -9.79887 -8.19739 60.0589 28.9469 -5.72925 0.207316 0.157794 -11.72 -4.36263 5.89117 
